<svg width="35" height="35" viewBox="0 0 35 35" fill="none" xmlns="http://www.w3.org/2000/svg">
<path d="M4.375 8.75H7.29167H30.625" stroke="#68828C" stroke-width="2" stroke-linecap="round" stroke-linejoin="round"/>
<path d="M27.7083 8.74996V29.1666C27.7083 29.9402 27.401 30.682 26.8541 31.229C26.3071 31.776 25.5652 32.0833 24.7917 32.0833H10.2083C9.43478 32.0833 8.69292 31.776 8.14594 31.229C7.59895 30.682 7.29166 29.9402 7.29166 29.1666V8.74996M11.6667 8.74996V5.83329C11.6667 5.05974 11.974 4.31788 12.5209 3.7709C13.0679 3.22392 13.8098 2.91663 14.5833 2.91663H20.4167C21.1902 2.91663 21.9321 3.22392 22.4791 3.7709C23.026 4.31788 23.3333 5.05974 23.3333 5.83329V8.74996" stroke="#68828C" stroke-width="2" stroke-linecap="round" stroke-linejoin="round"/>
</svg>
